<svg width="25" height="25" viewBox="0 0 25 25" fill="none" xmlns="http://www.w3.org/2000/svg">
<path d="M10 18L6 19L7 16V7C7 6.73478 7.10536 6.48043 7.29289 6.29289C7.48043 6.10536 7.73478 6 8 6H18C18.2652 6 18.5196 6.10536 18.7071 6.29289C18.8946 6.48043 19 6.73478 19 7V17C19 17.2652 18.8946 17.5196 18.7071 17.7071C18.5196 17.8946 18.2652 18 18 18H10Z" fill="#F9B0B0"/>
<path d="M9.75 12.5C10.0261 12.5 10.25 12.2761 10.25 12C10.25 11.7239 10.0261 11.5 9.75 11.5C9.47386 11.5 9.25 11.7239 9.25 12C9.25 12.2761 9.47386 12.5 9.75 12.5Z" stroke="#000001" stroke-linecap="round" stroke-linejoin="round"/>
<path d="M13 12.5C13.2761 12.5 13.5 12.2761 13.5 12C13.5 11.7239 13.2761 11.5 13 11.5C12.7239 11.5 12.5 11.7239 12.5 12C12.5 12.2761 12.7239 12.5 13 12.5Z" stroke="#000001" stroke-linecap="round" stroke-linejoin="round"/>
<path d="M16.25 12.5C16.5261 12.5 16.75 12.2761 16.75 12C16.75 11.7239 16.5261 11.5 16.25 11.5C15.9739 11.5 15.75 11.7239 15.75 12C15.75 12.2761 15.9739 12.5 16.25 12.5Z" stroke="#000001" stroke-linecap="round" stroke-linejoin="round"/>
</svg>
